<?xml version="1.0" encoding="UTF-8"?>
<!--Generator: Apple Native CoreSVG 341-->
<!DOCTYPE svg
PUBLIC "-//W3C//DTD SVG 1.1//EN"
       "http://www.w3.org/Graphics/SVG/1.1/DTD/svg11.dtd">
<svg version="1.1" xmlns="http://www.w3.org/2000/svg" xmlns:xlink="http://www.w3.org/1999/xlink" viewBox="0 0 314.551 197.168">
 <g>
  <rect height="197.168" opacity="0" width="314.551" x="0" y="0"/>
  <path d="M37.9883 196.875L276.562 196.875C301.758 196.875 314.551 184.082 314.551 159.18L314.551 37.6953C314.551 12.793 301.758 0 276.562 0L37.9883 0C12.6953 0 0 12.6953 0 37.6953L0 159.18C0 184.18 12.6953 196.875 37.9883 196.875ZM47.3633 67.9688C43.75 67.9688 41.6992 65.8203 41.6992 62.3047L41.6992 50.9766C41.6992 47.4609 43.75 45.3125 47.3633 45.3125L58.5938 45.3125C62.207 45.3125 64.3555 47.4609 64.3555 50.9766L64.3555 62.3047C64.3555 65.8203 62.207 67.9688 58.5938 67.9688ZM88.8672 67.9688C85.2539 67.9688 83.2031 65.8203 83.2031 62.3047L83.2031 50.9766C83.2031 47.4609 85.2539 45.3125 88.8672 45.3125L100.195 45.3125C103.711 45.3125 105.859 47.4609 105.859 50.9766L105.859 62.3047C105.859 65.8203 103.711 67.9688 100.195 67.9688ZM130.371 67.9688C126.953 67.9688 124.805 65.8203 124.805 62.3047L124.805 50.9766C124.805 47.4609 126.953 45.3125 130.371 45.3125L141.699 45.3125C145.215 45.3125 147.461 47.4609 147.461 50.9766L147.461 62.3047C147.461 65.8203 145.215 67.9688 141.699 67.9688ZM171.973 67.9688C168.457 67.9688 166.309 65.8203 166.309 62.3047L166.309 50.9766C166.309 47.4609 168.457 45.3125 171.973 45.3125L183.301 45.3125C186.816 45.3125 188.965 47.4609 188.965 50.9766L188.965 62.3047C188.965 65.8203 186.816 67.9688 183.301 67.9688ZM213.574 67.9688C209.961 67.9688 207.812 65.8203 207.812 62.3047L207.812 50.9766C207.812 47.4609 209.961 45.3125 213.574 45.3125L224.805 45.3125C228.418 45.3125 230.469 47.4609 230.469 50.9766L230.469 62.3047C230.469 65.8203 228.418 67.9688 224.805 67.9688ZM255.078 67.9688C251.465 67.9688 249.316 65.8203 249.316 62.3047L249.316 50.9766C249.316 47.4609 251.465 45.3125 255.078 45.3125L266.309 45.3125C269.922 45.3125 271.973 47.4609 271.973 50.9766L271.973 62.3047C271.973 65.8203 269.922 67.9688 266.309 67.9688ZM47.3633 109.57C43.75 109.57 41.6992 107.324 41.6992 103.906L41.6992 92.4805C41.6992 89.0625 43.75 86.8164 47.3633 86.8164L58.5938 86.8164C62.207 86.8164 64.3555 89.0625 64.3555 92.4805L64.3555 103.906C64.3555 107.324 62.207 109.57 58.5938 109.57ZM88.8672 109.57C85.2539 109.57 83.2031 107.324 83.2031 103.906L83.2031 92.4805C83.2031 89.0625 85.2539 86.8164 88.8672 86.8164L100.195 86.8164C103.711 86.8164 105.859 89.0625 105.859 92.4805L105.859 103.906C105.859 107.324 103.711 109.57 100.195 109.57ZM130.371 109.57C126.953 109.57 124.805 107.324 124.805 103.906L124.805 92.4805C124.805 89.0625 126.953 86.8164 130.371 86.8164L141.699 86.8164C145.215 86.8164 147.461 89.0625 147.461 92.4805L147.461 103.906C147.461 107.324 145.215 109.57 141.699 109.57ZM171.973 109.57C168.457 109.57 166.309 107.324 166.309 103.906L166.309 92.4805C166.309 89.0625 168.457 86.8164 171.973 86.8164L183.301 86.8164C186.816 86.8164 188.965 89.0625 188.965 92.4805L188.965 103.906C188.965 107.324 186.816 109.57 183.301 109.57ZM213.574 109.57C209.961 109.57 207.812 107.324 207.812 103.906L207.812 92.4805C207.812 89.0625 209.961 86.8164 213.574 86.8164L224.805 86.8164C228.418 86.8164 230.469 89.0625 230.469 92.4805L230.469 103.906C230.469 107.324 228.418 109.57 224.805 109.57ZM255.078 109.57C251.465 109.57 249.316 107.324 249.316 103.906L249.316 92.4805C249.316 89.0625 251.465 86.8164 255.078 86.8164L266.309 86.8164C269.922 86.8164 271.973 89.0625 271.973 92.4805L271.973 103.906C271.973 107.324 269.922 109.57 266.309 109.57ZM47.3633 151.074C43.75 151.074 41.6992 148.926 41.6992 145.41L41.6992 134.082C41.6992 130.566 43.75 128.418 47.3633 128.418L58.5938 128.418C62.207 128.418 64.3555 130.566 64.3555 134.082L64.3555 145.41C64.3555 148.926 62.207 151.074 58.5938 151.074ZM89.9414 151.074C85.7422 151.074 83.2031 148.535 83.2031 144.336L83.2031 135.156C83.2031 130.859 85.7422 128.418 89.9414 128.418L223.73 128.418C228.027 128.418 230.469 130.859 230.469 135.156L230.469 144.336C230.469 148.535 228.027 151.074 223.73 151.074ZM255.078 151.074C251.465 151.074 249.316 148.926 249.316 145.41L249.316 134.082C249.316 130.566 251.465 128.418 255.078 128.418L266.309 128.418C269.922 128.418 271.973 130.566 271.973 134.082L271.973 145.41C271.973 148.926 269.922 151.074 266.309 151.074Z" fill="#252a3a"/>
 </g>
</svg>
