<?xml version="1.0" encoding="UTF-8"?>
<!--Generator: Apple Native CoreSVG 341-->
<!DOCTYPE svg
PUBLIC "-//W3C//DTD SVG 1.1//EN"
       "http://www.w3.org/Graphics/SVG/1.1/DTD/svg11.dtd">
<svg version="1.1" xmlns="http://www.w3.org/2000/svg" xmlns:xlink="http://www.w3.org/1999/xlink" viewBox="0 0 253.418 280.957">
 <g>
  <rect height="280.957" opacity="0" width="253.418" x="0" y="0"/>
  <path d="M240.82 187.207C249.707 192.383 253.418 196.484 253.418 202.832C253.418 209.082 249.707 213.184 240.82 218.457L140.918 276.27C135.547 279.492 131.25 280.957 126.66 280.957C122.168 280.957 117.871 279.492 112.402 276.27L12.5977 218.457C3.61328 213.184 0 209.082 0 202.832C0 196.484 3.61328 192.383 12.5977 187.207L36.4969 173.34L54.1249 183.568L23.5352 201.074C22.8516 201.465 22.2656 201.953 22.2656 202.832C22.2656 203.613 22.8516 204.102 23.5352 204.492L121.484 260.547C123.438 261.719 125 262.305 126.66 262.305C128.418 262.305 129.883 261.719 131.836 260.547L229.785 204.492C230.566 204.102 231.055 203.613 231.055 202.832C231.055 201.953 230.566 201.465 229.785 201.074L199.224 183.585L216.898 173.34Z" fill="#33ba82"/>
  <path d="M57.2309 122.87L23.5352 142.188C22.8516 142.578 22.2656 143.066 22.2656 143.848C22.2656 144.727 22.8516 145.117 23.5352 145.605L121.484 201.66C123.438 202.734 125 203.32 126.66 203.32C128.418 203.32 129.883 202.734 131.836 201.66L229.785 145.605C230.566 145.117 231.055 144.727 231.055 143.848C231.055 143.066 230.566 142.578 229.785 142.188L196.117 122.886L213.865 112.598L240.82 128.223C249.707 133.496 253.418 137.598 253.418 143.848C253.418 150.195 249.707 154.297 240.82 159.473L140.918 217.383C135.547 220.508 131.25 222.07 126.66 222.07C122.168 222.07 117.871 220.508 112.402 217.383L12.5977 159.473C3.61328 154.297 0 150.195 0 143.848C0 137.598 3.61328 133.496 12.5977 128.223L39.5264 112.598Z" fill="#33ba82"/>
  <path d="M126.66 159.57C131.25 159.57 135.547 158.008 140.918 154.883L240.82 96.9727C249.707 91.7969 253.418 87.6953 253.418 81.3477C253.418 75.0977 249.707 70.9961 240.82 65.7227L140.918 7.91016C135.547 4.6875 131.25 3.22266 126.66 3.22266C122.168 3.22266 117.871 4.6875 112.402 7.91016L12.5977 65.7227C3.61328 70.9961 0 75.0977 0 81.3477C0 87.6953 3.61328 91.7969 12.5977 96.9727L112.402 154.883C117.871 158.008 122.168 159.57 126.66 159.57Z" fill="#33ba82"/>
 </g>
</svg>
